<svg width="21" height="26" viewBox="0 0 21 26" fill="none" xmlns="http://www.w3.org/2000/svg">
<g clip-path="url(#clip0_297083_8305)" filter="url(#filter0_dd_297083_8305)">
<path d="M15.7263 13.8651L13.8881 13.6552C13.4467 13.6046 13.0125 13.7566 12.7013 14.0677L11.3697 15.3993C9.3217 14.3572 7.64276 12.6855 6.60067 10.6303L7.93947 9.29144C8.25065 8.98025 8.40263 8.54605 8.35197 8.1046L8.1421 6.28092C8.05526 5.55 7.44013 5 6.70198 5H5.45002C4.63226 5 3.952 5.68026 4.00266 6.49802C4.38621 12.6783 9.32894 17.6138 15.5019 17.9973C16.3197 18.048 16.9999 17.3677 16.9999 16.55V15.298C17.0072 14.5671 16.4572 13.952 15.7263 13.8651Z" fill="#2E2F42"/>
</g>
<defs>
<filter id="filter0_dd_297083_8305" x="-3" y="0" width="26" height="32" filterUnits="userSpaceOnUse" color-interpolation-filters="sRGB">
<feFlood flood-opacity="0" result="BackgroundImageFix"/>
<feColorMatrix in="SourceAlpha" type="matrix" values="0 0 0 0 0 0 0 0 0 0 0 0 0 0 0 0 0 0 127 0" result="hardAlpha"/>
<feOffset dy="4"/>
<feGaussianBlur stdDeviation="2"/>
<feComposite in2="hardAlpha" operator="out"/>
<feColorMatrix type="matrix" values="0 0 0 0 0 0 0 0 0 0 0 0 0 0 0 0 0 0 0.25 0"/>
<feBlend mode="normal" in2="BackgroundImageFix" result="effect1_dropShadow_297083_8305"/>
<feColorMatrix in="SourceAlpha" type="matrix" values="0 0 0 0 0 0 0 0 0 0 0 0 0 0 0 0 0 0 127 0" result="hardAlpha"/>
<feOffset dy="4"/>
<feGaussianBlur stdDeviation="2"/>
<feComposite in2="hardAlpha" operator="out"/>
<feColorMatrix type="matrix" values="0 0 0 0 0 0 0 0 0 0 0 0 0 0 0 0 0 0 0.25 0"/>
<feBlend mode="normal" in2="effect1_dropShadow_297083_8305" result="effect2_dropShadow_297083_8305"/>
<feBlend mode="normal" in="SourceGraphic" in2="effect2_dropShadow_297083_8305" result="shape"/>
</filter>
<clipPath id="clip0_297083_8305">
<rect width="18" height="24" fill="white" transform="translate(1)"/>
</clipPath>
</defs>
</svg>
